<mxfile host="app.diagrams.net" modified="2023-03-01T02:06:10.189Z" agent="5.0 (Macintosh; Intel Mac OS X 10_15_7) AppleWebKit/537.36 (KHTML, like Gecko) Chrome/109.0.0.0 Safari/537.36" etag="vlCfsn5Jji5xDgE6ddBF" version="20.8.23" type="github">
  <diagram name="Page-1" id="74e2e168-ea6b-b213-b513-2b3c1d86103e">
    <mxGraphModel dx="954" dy="562" grid="1" gridSize="10" guides="1" tooltips="1" connect="1" arrows="1" fold="1" page="1" pageScale="1" pageWidth="1100" pageHeight="850" background="none" math="0" shadow="0">
      <root>
        <mxCell id="0" />
        <mxCell id="1" parent="0" />
        <mxCell id="UFCg1F5X1jWD_62m4qSp-1" value="组织、部门、用户数据同步" style="swimlane;html=1;childLayout=stackLayout;startSize=20;rounded=0;shadow=0;labelBackgroundColor=none;strokeWidth=1;fontFamily=Verdana;fontSize=8;align=center;" vertex="1" parent="1">
          <mxGeometry x="210" y="40" width="610" height="200" as="geometry" />
        </mxCell>
        <mxCell id="UFCg1F5X1jWD_62m4qSp-2" value="低代码平台" style="swimlane;html=1;startSize=20;" vertex="1" parent="UFCg1F5X1jWD_62m4qSp-1">
          <mxGeometry y="20" width="190" height="180" as="geometry" />
        </mxCell>
        <mxCell id="UFCg1F5X1jWD_62m4qSp-3" value="变更数据数据" style="rounded=1;whiteSpace=wrap;html=1;" vertex="1" parent="UFCg1F5X1jWD_62m4qSp-2">
          <mxGeometry x="30" y="80" width="120" height="60" as="geometry" />
        </mxCell>
        <mxCell id="UFCg1F5X1jWD_62m4qSp-5" value="教育平台" style="swimlane;html=1;startSize=20;" vertex="1" parent="UFCg1F5X1jWD_62m4qSp-1">
          <mxGeometry x="190" y="20" width="220" height="180" as="geometry" />
        </mxCell>
        <mxCell id="UFCg1F5X1jWD_62m4qSp-7" value="消息处理、转换" style="rounded=1;whiteSpace=wrap;html=1;" vertex="1" parent="UFCg1F5X1jWD_62m4qSp-5">
          <mxGeometry x="50" y="80" width="120" height="60" as="geometry" />
        </mxCell>
        <mxCell id="UFCg1F5X1jWD_62m4qSp-12" value="教育号" style="swimlane;html=1;startSize=20;" vertex="1" parent="UFCg1F5X1jWD_62m4qSp-1">
          <mxGeometry x="410" y="20" width="200" height="180" as="geometry" />
        </mxCell>
        <mxCell id="UFCg1F5X1jWD_62m4qSp-13" value="组织机构、部门、用户数据变更" style="rounded=1;whiteSpace=wrap;html=1;" vertex="1" parent="UFCg1F5X1jWD_62m4qSp-12">
          <mxGeometry x="50" y="80" width="100" height="60" as="geometry" />
        </mxCell>
        <mxCell id="UFCg1F5X1jWD_62m4qSp-17" style="edgeStyle=orthogonalEdgeStyle;rounded=0;orthogonalLoop=1;jettySize=auto;html=1;entryX=1;entryY=0.5;entryDx=0;entryDy=0;" edge="1" parent="UFCg1F5X1jWD_62m4qSp-1" source="UFCg1F5X1jWD_62m4qSp-13" target="UFCg1F5X1jWD_62m4qSp-7">
          <mxGeometry relative="1" as="geometry" />
        </mxCell>
        <mxCell id="UFCg1F5X1jWD_62m4qSp-19" value="回调url" style="edgeLabel;html=1;align=center;verticalAlign=middle;resizable=0;points=[];" vertex="1" connectable="0" parent="UFCg1F5X1jWD_62m4qSp-17">
          <mxGeometry x="-0.16" relative="1" as="geometry">
            <mxPoint as="offset" />
          </mxGeometry>
        </mxCell>
        <mxCell id="UFCg1F5X1jWD_62m4qSp-18" style="edgeStyle=orthogonalEdgeStyle;rounded=0;orthogonalLoop=1;jettySize=auto;html=1;" edge="1" parent="UFCg1F5X1jWD_62m4qSp-1" source="UFCg1F5X1jWD_62m4qSp-7" target="UFCg1F5X1jWD_62m4qSp-3">
          <mxGeometry relative="1" as="geometry" />
        </mxCell>
        <mxCell id="UFCg1F5X1jWD_62m4qSp-20" value="回调url" style="edgeLabel;html=1;align=center;verticalAlign=middle;resizable=0;points=[];" vertex="1" connectable="0" parent="UFCg1F5X1jWD_62m4qSp-18">
          <mxGeometry x="-0.1333" y="2" relative="1" as="geometry">
            <mxPoint as="offset" />
          </mxGeometry>
        </mxCell>
      </root>
    </mxGraphModel>
  </diagram>
</mxfile>
